<svg data-name="レイヤー 1" version="1.1" viewBox="0 0 927.22 463.88" xmlns="http://www.w3.org/2000/svg"><defs><style>.cls-1{fill:#1e2380;}.cls-2{fill:#fff;}.cls-3{fill:#be003f;}</style></defs><path class="cls-1" transform="translate(-117.11 -172.1)" d="m336.64 303.51a70.06 70.06 0 0 1-26.28-4.94 68.47 68.47 0 0 1-21.67-13.76 64.54 64.54 0 0 1-14.61-20.43 61.81 61.81 0 0 1 0-50 64.59 64.59 0 0 1 14.61-20.47 68.64 68.64 0 0 1 21.59-13.75 69.58 69.58 0 0 1 26.28-5 72.4 72.4 0 0 1 21.67 3.22 61 61 0 0 1 17.61 8.47l-10.49 20.62a37.5 37.5 0 0 0-12.22-6.22 50.21 50.21 0 0 0-15.07-2.25 46.63 46.63 0 0 0-17.05 3 41.15 41.15 0 0 0-13.65 8.54 39.62 39.62 0 0 0 0 57.5 41.18 41.18 0 0 0 13.64 8.6 46.84 46.84 0 0 0 17.05 3 50.53 50.53 0 0 0 15.07-2.24 37.51 37.51 0 0 0 12.22-6.23l10.49 20.62a63.47 63.47 0 0 1-17.28 8.36 70.42 70.42 0 0 1-21.91 3.36z"/><path class="cls-1" transform="translate(-117.11 -172.1)" d="m401.18 208.38a13.21 13.21 0 0 1-6.86-1.84 13.64 13.64 0 0 1-4.94-5 13.4 13.4 0 0 1-1.84-6.9 12.83 12.83 0 0 1 1.87-6.82 14.27 14.27 0 0 1 4.95-4.91 13.58 13.58 0 0 1 13.65 0 14.33 14.33 0 0 1 4.94 4.91 12.84 12.84 0 0 1 1.88 6.82 13.25 13.25 0 0 1-1.88 6.9 14.11 14.11 0 0 1-4.94 5 13 13 0 0 1-6.83 1.84zm-11.47 92.74v-76.77h23v76.77z"/><path class="cls-1" transform="translate(-117.11 -172.1)" d="m460.11 301.12-40.33-76.77h27.13l20.92 46.33 20.92-46.33h27.13l-40.4 76.77z"/><path class="cls-1" transform="translate(-117.11 -172.1)" d="m534.25 208.38a13.18 13.18 0 0 1-6.86-1.84 13.74 13.74 0 0 1-4.95-5 13.49 13.49 0 0 1-1.83-6.9 12.83 12.83 0 0 1 1.87-6.82 14.27 14.27 0 0 1 4.95-4.91 13.56 13.56 0 0 1 13.64 0 14.27 14.27 0 0 1 4.95 4.91 12.83 12.83 0 0 1 1.87 6.82 13.24 13.24 0 0 1-1.87 6.9 14.06 14.06 0 0 1-4.95 5 13 13 0 0 1-6.82 1.84zm-11.47 92.74v-76.77h23v76.77z"/><path class="cls-1" transform="translate(-117.11 -172.1)" d="m603.3 303.51a43.72 43.72 0 0 1-30.22-11.88 41.05 41.05 0 0 1-9.29-13 37.68 37.68 0 0 1-3.38-15.85 38.67 38.67 0 0 1 3.19-15.52 41.13 41.13 0 0 1 9-13.08 42.24 42.24 0 0 1 13.6-9 43.56 43.56 0 0 1 16.94-3.18 48.77 48.77 0 0 1 14.36 2.1 32.93 32.93 0 0 1 11.06 5.47l-7.87 15.43a23 23 0 0 0-14-4.12 22.2 22.2 0 0 0-12.1 3.15 20.21 20.21 0 0 0-7.5 8.17 23.38 23.38 0 0 0-2.51 10.57 22.63 22.63 0 0 0 2.73 11.06 20.37 20.37 0 0 0 7.8 7.91 23 23 0 0 0 11.73 2.92 24.71 24.71 0 0 0 7.76-1.16 21.4 21.4 0 0 0 6-3l7.87 15.44a38.39 38.39 0 0 1-11.06 5.4 45.77 45.77 0 0 1-14.11 2.17z"/><path class="cls-1" transform="translate(-117.11 -172.1)" d="m674.07 303.51q-11.48 0-17.81-7.27t-6.33-20.39v-34h-10.35v-17.5h10.35v-28.71h22.94v28.71h16.86v17.47h-16.86v32.31c0 2.9 0.57 5.09 1.72 6.59a5.94 5.94 0 0 0 5 2.25 11.56 11.56 0 0 0 6.9-2.4l5.79 18.43a37.3 37.3 0 0 1-8.73 3.29 39.35 39.35 0 0 1-9.48 1.22z"/><path class="cls-1" transform="translate(-117.11 -172.1)" d="M743.49,303.51a45.83,45.83,0,0,1-22.34-5.39,41.19,41.19,0,0,1-15.6-14.58,38.67,38.67,0,0,1-5.7-20.81,39.51,39.51,0,0,1,12.3-29,42.19,42.19,0,0,1,13.57-8.7A44.39,44.39,0,0,1,742.43,222a43.13,43.13,0,0,1,21,5,35.57,35.57,0,0,1,14.09,13.83,41.43,41.43,0,0,1,5.13,20.58c-.05.65-.08,1.22-.11,1.72s-.11,1.43-.26,2.78H723.47A19.12,19.12,0,0,0,726.13,276a18.08,18.08,0,0,0,7.46,6.83,24.41,24.41,0,0,0,11.17,2.43,22.77,22.77,0,0,0,10.57-2.36,30.19,30.19,0,0,0,8.92-7.46l16.57,8.4a37.86,37.86,0,0,1-15.29,14.47A46.42,46.42,0,0,1,743.49,303.51ZM724.22,253H760a17,17,0,0,0-3.19-7.69,16.13,16.13,0,0,0-6.18-4.91,20,20,0,0,0-8.47-1.72,21.34,21.34,0,0,0-8.85,1.72,15.42,15.42,0,0,0-6.18,4.91A15.69,15.69,0,0,0,724.22,253Z"/><path class="cls-1" transform="translate(-117.11 -172.1)" d="m836.82 303.51a43.67 43.67 0 0 1-30.21-11.88 41.08 41.08 0 0 1-9.3-13 37.67 37.67 0 0 1-3.37-15.85 38.66 38.66 0 0 1 3.18-15.52 41.46 41.46 0 0 1 9-13.08 42.29 42.29 0 0 1 13.61-9 43.52 43.52 0 0 1 16.94-3.18 48.82 48.82 0 0 1 14.36 2.1 32.78 32.78 0 0 1 11.05 5.47l-7.87 15.43a23 23 0 0 0-13.94-4.12 22.21 22.21 0 0 0-12.11 3.12 20.25 20.25 0 0 0-7.49 8.17 23.27 23.27 0 0 0-2.52 10.57 22.53 22.53 0 0 0 2.74 11.06 20.23 20.23 0 0 0 7.8 7.91 23 23 0 0 0 11.73 2.92 24.76 24.76 0 0 0 7.76-1.16 21.46 21.46 0 0 0 6-3l7.87 15.44a38.2 38.2 0 0 1-11.05 5.4 45.83 45.83 0 0 1-14.18 2.2z"/><path class="cls-1" transform="translate(-117.11 -172.1)" d="M875.05,301.12v-129h23.09v60.72a33.07,33.07,0,0,1,11-7.83,35,35,0,0,1,14.7-3,30.88,30.88,0,0,1,15.51,3.82A27.34,27.34,0,0,1,950,236.49a32.67,32.67,0,0,1,3.82,16v48.58h-23V257.41q0-8.25-4.31-12.9t-11.81-4.64a17.15,17.15,0,0,0-8.76,2.13,15.26,15.26,0,0,0-5.7,5.66,15.83,15.83,0,0,0-2,8v45.44Z"/><path class="cls-1" transform="translate(-117.11 -172.1)" d="m336.64 451.45a69.87 69.87 0 0 1-26.28-4.95 68.44 68.44 0 0 1-21.67-13.75 64.65 64.65 0 0 1-14.61-20.43 61.81 61.81 0 0 1 0-50 64.48 64.48 0 0 1 14.61-20.47 68.66 68.66 0 0 1 21.59-13.76 69.57 69.57 0 0 1 26.28-4.94 72.4 72.4 0 0 1 21.67 3.22 60.72 60.72 0 0 1 17.61 8.47l-10.49 20.62a37.51 37.51 0 0 0-12.22-6.23 50.53 50.53 0 0 0-15.07-2.23 46.84 46.84 0 0 0-17.06 3 41.18 41.18 0 0 0-13.65 8.55 39.63 39.63 0 0 0 0 57.5 41.15 41.15 0 0 0 13.65 8.52 46.63 46.63 0 0 0 17.05 3 50.21 50.21 0 0 0 15.07-2.25 37.5 37.5 0 0 0 12.22-6.22l10.49 20.62a63.47 63.47 0 0 1-17.28 8.35 70.13 70.13 0 0 1-21.91 3.38z"/><path class="cls-1" transform="translate(-117.11 -172.1)" d="M389.71,449.05V320H412.8v60.73a33.34,33.34,0,0,1,11-7.84,35.15,35.15,0,0,1,14.7-3A30.92,30.92,0,0,1,454,373.71a27.25,27.25,0,0,1,10.57,10.72,32.55,32.55,0,0,1,3.82,16v48.58h-23v-43.7q0-8.25-4.32-12.9t-11.8-4.65a17.16,17.16,0,0,0-8.77,2.14,15.26,15.26,0,0,0-5.7,5.66,15.8,15.8,0,0,0-2,8v45.43Z"/><path class="cls-1" transform="translate(-117.11 -172.1)" d="m520.46 451.45a36.2 36.2 0 0 1-19.23-5.28 38.06 38.06 0 0 1-13.72-14.55 46.37 46.37 0 0 1-0.15-41.83 37.8 37.8 0 0 1 13.49-14.54 36.19 36.19 0 0 1 19.61-5.36 37.41 37.41 0 0 1 15.25 3.11 30.23 30.23 0 0 1 11.59 8.66v-9.38h23v76.77h-23v-10.12a37.31 37.31 0 0 1-12.08 9.26 33.82 33.82 0 0 1-14.76 3.26zm6.82-19.57a20.44 20.44 0 0 0 10.61-2.73 19.84 19.84 0 0 0 7.27-7.5 23.93 23.93 0 0 0 0-21.93 19.78 19.78 0 0 0-7.27-7.53 21.83 21.83 0 0 0-21.18 0 19.91 19.91 0 0 0-7.35 7.53 23.39 23.39 0 0 0 0 21.82 20 20 0 0 0 17.92 10.34z"/><path class="cls-1" transform="translate(-117.11 -172.1)" d="M591.75,449.05V320.11h23.09V449.05Z"/><path class="cls-1" transform="translate(-117.11 -172.1)" d="M636.28,449.05V320.11h23.09V449.05Z"/><path class="cls-1" transform="translate(-117.11 -172.1)" d="M717.77,451.45a45.86,45.86,0,0,1-22.34-5.4,41.09,41.09,0,0,1-15.59-14.58,38.61,38.61,0,0,1-5.7-20.8,39.5,39.5,0,0,1,12.29-29A42.44,42.44,0,0,1,700,373a44.21,44.21,0,0,1,16.72-3.11,43.17,43.17,0,0,1,21,4.94,35.53,35.53,0,0,1,14.09,13.84A41.32,41.32,0,0,1,757,409.24c-.05.65-.09,1.23-.11,1.73s-.12,1.42-.27,2.77H697.75a19.14,19.14,0,0,0,2.67,10.16,18.05,18.05,0,0,0,7.46,6.82A24.24,24.24,0,0,0,719,433.16a22.81,22.81,0,0,0,10.58-2.36,30.47,30.47,0,0,0,8.92-7.46l16.57,8.39a37.82,37.82,0,0,1-15.3,14.47A46.28,46.28,0,0,1,717.77,451.45ZM698.5,400.92h35.76a17,17,0,0,0-3.18-7.68,16.15,16.15,0,0,0-6.19-4.91,20,20,0,0,0-8.47-1.73,21.34,21.34,0,0,0-8.85,1.73,15.4,15.4,0,0,0-6.18,4.91A15.71,15.71,0,0,0,698.5,400.92Z"/><path class="cls-1" transform="translate(-117.11 -172.1)" d="M772.12,449.05V372.28h23.09v8.48a33.24,33.24,0,0,1,11-7.84,35.15,35.15,0,0,1,14.7-3,30.88,30.88,0,0,1,15.51,3.82A27.27,27.27,0,0,1,847,384.43a32.66,32.66,0,0,1,3.82,16v48.58h-23v-43.7q0-8.25-4.31-12.86t-11.81-4.61a17.72,17.72,0,0,0-8.77,2.06,14.57,14.57,0,0,0-5.69,5.62,16,16,0,0,0-2,8.06v45.43Z"/><path class="cls-1" transform="translate(-117.11 -172.1)" d="m904.81 490.28q-15.51 0-26-5.69a34.25 34.25 0 0 1-15.4-16.65l18.81-9.07a22 22 0 0 0 9.22 8.4 28.86 28.86 0 0 0 13.35 3.15 24.09 24.09 0 0 0 11.43-2.59 19.15 19.15 0 0 0 7.69-7.23 20.92 20.92 0 0 0 2.77-10.87v-10.8a35.43 35.43 0 0 1-12 9.22 34.55 34.55 0 0 1-15 3.3 35.92 35.92 0 0 1-19-5.21 37.87 37.87 0 0 1-13.68-14.43 46.4 46.4 0 0 1-0.12-42.06 37.92 37.92 0 0 1 13.65-14.54 36.91 36.91 0 0 1 19.75-5.32 35.89 35.89 0 0 1 15 3.11 30.57 30.57 0 0 1 11.4 8.66v-9.38h23.09v78.87a40.9 40.9 0 0 1-4.91 20.17 34.12 34.12 0 0 1-14.88 13.9q-9.98 5.07-25.17 5.06zm1.73-58.4a20.8 20.8 0 0 0 10.68-2.73 19.61 19.61 0 0 0 7.35-7.5 23.61 23.61 0 0 0 0-21.85 20.46 20.46 0 0 0-35.76 0 23.73 23.73 0 0 0-0.07 21.85 19.41 19.41 0 0 0 7.27 7.5 20.47 20.47 0 0 0 10.53 2.73z"/><path class="cls-1" transform="translate(-117.11 -172.1)" d="m1005.1 451.45a45.84 45.84 0 0 1-22.34-5.4 41.19 41.19 0 0 1-15.6-14.58 38.69 38.69 0 0 1-5.69-20.8 39.5 39.5 0 0 1 12.29-29 42.33 42.33 0 0 1 13.57-8.67 44.21 44.21 0 0 1 16.72-3.11 43.22 43.22 0 0 1 21 4.94 35.53 35.53 0 0 1 14.09 13.84 41.42 41.42 0 0 1 5.14 20.57c0 0.65-0.09 1.23-0.12 1.73s-0.11 1.42-0.26 2.77h-58.82a19.22 19.22 0 0 0 2.66 10.16 18.12 18.12 0 0 0 7.46 6.82 24.28 24.28 0 0 0 11.17 2.44 22.77 22.77 0 0 0 10.61-2.36 30.35 30.35 0 0 0 8.92-7.46l16.57 8.39a37.79 37.79 0 0 1-15.29 14.47 46.28 46.28 0 0 1-22.08 5.25zm-19.27-50.53h35.76a16.93 16.93 0 0 0-3.19-7.68 16 16 0 0 0-6.18-4.91 20 20 0 0 0-8.47-1.73 21.34 21.34 0 0 0-8.85 1.73 15.34 15.34 0 0 0-6.18 4.91 15.62 15.62 0 0 0-2.89 7.68z"/><path class="cls-1" transform="translate(-117.11 -172.1)" d="m336.64 599.39a69.87 69.87 0 0 1-26.28-4.95 68.3 68.3 0 0 1-21.67-13.76 64.54 64.54 0 0 1-14.61-20.43 61.81 61.81 0 0 1 0-50 64.44 64.44 0 0 1 14.61-20.46 68.49 68.49 0 0 1 21.59-13.79 69.58 69.58 0 0 1 26.28-5 72.41 72.41 0 0 1 21.67 3.23 60.46 60.46 0 0 1 17.61 8.47l-10.49 20.61a37.69 37.69 0 0 0-12.22-6.22 50.21 50.21 0 0 0-15.07-2.25 46.63 46.63 0 0 0-17.05 3 41.15 41.15 0 0 0-13.65 8.54 39.62 39.62 0 0 0 0 57.5 41 41 0 0 0 13.64 8.63 46.84 46.84 0 0 0 17.05 3 50.21 50.21 0 0 0 15.07-2.25 37.5 37.5 0 0 0 12.22-6.22l10.49 20.61a63.19 63.19 0 0 1-17.28 8.36 70.42 70.42 0 0 1-21.91 3.38z"/><path class="cls-1" transform="translate(-117.11 -172.1)" d="m427.5 599.39q-21.08 0-30.33-8.32t-9.26-27.14v-43.71h23v38.24q0 12.13 3.71 17.12t12.86 5q9 0 12.74-5t3.78-17.12v-38.24h23v43.71q0 18.81-9.22 27.14t-30.28 8.32z"/><path class="cls-1" transform="translate(-117.11 -172.1)" d="M483.65,636V520.22h23.09v9.37a31.2,31.2,0,0,1,11.54-8.69,36.22,36.22,0,0,1,14.92-3.08,36.88,36.88,0,0,1,19.68,5.32,37.85,37.85,0,0,1,13.64,14.55,46.35,46.35,0,0,1,0,41.76A38.3,38.3,0,0,1,553.07,594a35.69,35.69,0,0,1-19.34,5.36,34.64,34.64,0,0,1-14.89-3.26,36.19,36.19,0,0,1-12.1-9.26V636Zm43.18-56.15a20.65,20.65,0,0,0,10.57-2.7,19.07,19.07,0,0,0,7.27-7.5,22.38,22.38,0,0,0,2.62-10.94,22,22,0,0,0-2.69-10.95,20.36,20.36,0,0,0-7.31-7.57,19.9,19.9,0,0,0-10.46-2.77,20.41,20.41,0,0,0-10.61,2.77,19.93,19.93,0,0,0-7.35,7.54,23.85,23.85,0,0,0,0,21.89,19.7,19.7,0,0,0,7.31,7.49A20.55,20.55,0,0,0,526.83,579.82Z"/><path class="cls-1" transform="translate(-117.11 -172.1)" d="M656.53,594.64q-12.79,0-19.35-6.22T630.62,570V527.39H646v38.1q0,7.68,2.38,10.83c1.59,2.11,4.31,3.16,8.18,3.16s6.51-1.05,8.09-3.16,2.38-5.71,2.38-10.83v-38.1h15.44V570q0,12.19-6.56,18.41T656.53,594.64Z"/><path class="cls-1" transform="translate(-117.11 -172.1)" d="M691.55,565.49V552.9H717.3v12.59Z"/><path class="cls-1" transform="translate(-117.11 -172.1)" d="M722.58,593.36v-8q7.27-5.48,12.83-10.12t9.56-8.45a71.59,71.59,0,0,0,6.52-7,27.79,27.79,0,0,0,3.69-5.84,12.31,12.31,0,0,0,1.18-5A9.18,9.18,0,0,0,752,541a8.72,8.72,0,0,0-4.68-1.26,8.54,8.54,0,0,0-4.52,1.26,12.57,12.57,0,0,0-3.84,3.88,32.26,32.26,0,0,0-3.28,6.66l-12.79-6.24a32.48,32.48,0,0,1,3.92-8.18,25.21,25.21,0,0,1,5.63-6,24.44,24.44,0,0,1,7.22-3.75,27.63,27.63,0,0,1,8.66-1.3,27.3,27.3,0,0,1,12.81,2.9,22.08,22.08,0,0,1,8.74,7.93A21.29,21.29,0,0,1,773,548.46a23.76,23.76,0,0,1-.84,6.25,25.75,25.75,0,0,1-2.62,6.16A39.59,39.59,0,0,1,765.1,567a63.07,63.07,0,0,1-6.42,6.26q-3.72,3.18-8.47,6.49h24v13.6Z"/><path class="cls-1" transform="translate(-117.11 -172.1)" d="M782.11,593.36v-8q7.27-5.48,12.84-10.12t9.55-8.45a70.37,70.37,0,0,0,6.52-7,27.87,27.87,0,0,0,3.7-5.84,12.48,12.48,0,0,0,1.18-5,9.2,9.2,0,0,0-1.16-4.56,9.07,9.07,0,0,0-3.2-3.34,8.72,8.72,0,0,0-4.68-1.26,8.57,8.57,0,0,0-4.52,1.26,12.78,12.78,0,0,0-3.84,3.88,32.78,32.78,0,0,0-3.28,6.66l-12.79-6.24a32.48,32.48,0,0,1,3.92-8.18,25.25,25.25,0,0,1,5.64-6,24.38,24.38,0,0,1,7.21-3.75,27.68,27.68,0,0,1,8.66-1.3,27.27,27.27,0,0,1,12.81,2.9,22.08,22.08,0,0,1,8.74,7.93,21.2,21.2,0,0,1,3.16,11.52,23.76,23.76,0,0,1-.84,6.25,25.35,25.35,0,0,1-2.62,6.16,39.59,39.59,0,0,1-4.48,6.14,64,64,0,0,1-6.41,6.26q-3.72,3.18-8.48,6.49h24v13.6Z"/><polygon class="cls-1" points="471.02 427.02 498.2 427.02 498.2 415.36 485.54 415.36 485.54 360.71 498.2 360.71 498.2 349.05 471.02 349.05"/><polygon class="cls-1" points="732.99 349.05 732.99 360.71 745.66 360.71 745.66 415.36 732.99 415.36 732.99 427.02 760.18 427.02 760.18 349.05"/><path class="cls-1" transform="translate(-117.11 -172.1)" d="M242.17,238v21.44s-10.65,0-15.76,0-9.24-.49-15.23,2.14-9.25,5.27-13,12.39-4.28,25.72-4.28,28.5.11,42.16,0,50.64,0,79.27,0,91.39-.36,42.72.42,50.61,1.64,17.83,8,25.18,16.65,7.82,24,7.74,15.84,0,15.84,0v21.26s-36.09.4-41,0-15-3.28-22-8-13.29-11.88-16.41-23.61-3.52-27.21-3.6-33.39-.08-29.39-.55-35.49-3.75-16.89-7.5-23-6.65-9.93-11.89-13.29-8.6-4.77-14.07-5.55a45.81,45.81,0,0,0-8-.63v-24s11.25-.08,16.34-3.13,16.39-13.06,19-19.07,5.67-14.78,6.1-22.86,0-28.69.09-35,1.37-26.46,5.75-36.6,9.37-16.41,18.13-21.31,15.29-5.58,25.6-5.92S242.17,238,242.17,238Z"/><g transform="matrix(1.4288 0 0 1.4288 774.77 360.01)" data-name="Layer 2"><g id="new"><path d="m53.51 4.62a2.58 2.58 0 0 0-1.16-0.89 4 4 0 0 0-1.41-0.28 3.94 3.94 0 0 0-1.6 0.32 3.83 3.83 0 0 0-1.24 0.88 3.77 3.77 0 0 0-0.8 1.35 4.54 4.54 0 0 0-0.3 1.6 5 5 0 0 0 0.27 1.69 3.61 3.61 0 0 0 0.78 1.32 3.35 3.35 0 0 0 1.2 0.86 4 4 0 0 0 1.59 0.3 3.47 3.47 0 0 0 1.61-0.36 3.13 3.13 0 0 0 1.14-0.95l1.62 1.14a5.32 5.32 0 0 1-1.84 1.46 5.84 5.84 0 0 1-2.55 0.52 6.66 6.66 0 0 1-2.44-0.44 5.51 5.51 0 0 1-1.91-1.23 5.72 5.72 0 0 1-1.23-1.91 6.32 6.32 0 0 1-0.45-2.42 6.07 6.07 0 0 1 0.48-2.46 5.35 5.35 0 0 1 1.29-1.86 5.84 5.84 0 0 1 1.95-1.19 7 7 0 0 1 2.43-0.41 6.4 6.4 0 0 1 1.13 0.1 6 6 0 0 1 1.14 0.32 5.53 5.53 0 0 1 1 0.54 3.17 3.17 0 0 1 0.82 0.77z"/><path d="m55.61 9.42a4 4 0 0 1 0.33-1.65 3.79 3.79 0 0 1 2.21-2.09 4.72 4.72 0 0 1 1.64-0.29 4.66 4.66 0 0 1 1.63 0.29 3.91 3.91 0 0 1 2.58 3.74 4.15 4.15 0 0 1-0.33 1.67 3.89 3.89 0 0 1-0.88 1.28 4.07 4.07 0 0 1-1.33 0.84 4.26 4.26 0 0 1-1.63 0.31 4.31 4.31 0 0 1-1.64-0.31 3.92 3.92 0 0 1-1.32-0.84 3.77 3.77 0 0 1-0.89-1.28 4.15 4.15 0 0 1-0.37-1.67zm2 0a3.13 3.13 0 0 0 0.14 0.9 2.34 2.34 0 0 0 0.41 0.8 2.22 2.22 0 0 0 0.68 0.57 2.27 2.27 0 0 0 2 0 2.27 2.27 0 0 0 0.69-0.57 2.5 2.5 0 0 0 0.4-0.8 3.13 3.13 0 0 0 0.14-0.9 3.06 3.06 0 0 0-0.14-0.89 2.56 2.56 0 0 0-0.4-0.79 2.27 2.27 0 0 0-0.69-0.57 2.46 2.46 0 0 0-2 0 2.22 2.22 0 0 0-0.68 0.57 2.38 2.38 0 0 0-0.41 0.79 3.06 3.06 0 0 0-0.19 0.89z"/><path d="m73.31 13.29h-1.83v-1.15a2.69 2.69 0 0 1-1.11 1 3.5 3.5 0 0 1-1.53 0.35 3.66 3.66 0 0 1-1.58-0.33 3.58 3.58 0 0 1-1.18-0.88 3.73 3.73 0 0 1-0.78-1.28 4.58 4.58 0 0 1-0.3-1.58 4.34 4.34 0 0 1 0.28-1.58 3.82 3.82 0 0 1 0.76-1.28 3.53 3.53 0 0 1 1.19-0.86 3.57 3.57 0 0 1 1.5-0.31 3.35 3.35 0 0 1 0.94 0.12 3.27 3.27 0 0 1 0.73 0.3 2.47 2.47 0 0 1 0.54 0.38 3.3 3.3 0 0 1 0.37 0.4v-5.39h1.92zm-6.31-3.87a3.11 3.11 0 0 0 0.13 0.9 2.53 2.53 0 0 0 0.41 0.8 2.15 2.15 0 0 0 0.69 0.57 2 2 0 0 0 1 0.23 2 2 0 0 0 1-0.22 2.29 2.29 0 0 0 0.71-0.57 2.39 2.39 0 0 0 0.45-0.79 2.73 2.73 0 0 0 0.15-0.89 2.77 2.77 0 0 0-0.15-0.89 2.33 2.33 0 0 0-0.45-0.8 2.48 2.48 0 0 0-0.71-0.58 2 2 0 0 0-1-0.22 2.1 2.1 0 0 0-1 0.21 2.15 2.15 0 0 0-0.69 0.57 2.59 2.59 0 0 0-0.41 0.79 3 3 0 0 0-0.13 0.89z"/><path d="m82.65 9.55v0.26a2.11 2.11 0 0 1 0 0.25h-5.86a1.92 1.92 0 0 0 0.22 0.76 1.74 1.74 0 0 0 0.49 0.59 2.25 2.25 0 0 0 1.5 0.59 2.65 2.65 0 0 0 1.22-0.26 2.39 2.39 0 0 0 0.78-0.74l1.28 1a3.85 3.85 0 0 1-3.28 1.52 4.84 4.84 0 0 1-1.65-0.28 4 4 0 0 1-1.3-0.79 3.64 3.64 0 0 1-0.87-1.26 4.5 4.5 0 0 1-0.31-1.69 4.58 4.58 0 0 1 0.31-1.69 3.89 3.89 0 0 1 0.82-1.29 3.63 3.63 0 0 1 1.29-0.83 4.41 4.41 0 0 1 3.09 0 3.23 3.23 0 0 1 1.17 0.79 3.68 3.68 0 0 1 0.78 1.29 5.31 5.31 0 0 1 0.32 1.78zm-1.92-0.86a2.4 2.4 0 0 0-0.11-0.69 1.48 1.48 0 0 0-0.32-0.59 1.61 1.61 0 0 0-0.57-0.41 2 2 0 0 0-0.81-0.15 2.12 2.12 0 0 0-1.46 0.52 1.93 1.93 0 0 0-0.67 1.34z"/><path d="m88.17 7.15h-1.46v-1.54h1.46v-1.13a5.68 5.68 0 0 1 0.15-1.32 2.9 2.9 0 0 1 0.51-1.11 2.47 2.47 0 0 1 1-0.76 3.45 3.45 0 0 1 1.44-0.29 4.28 4.28 0 0 1 0.54 0 2.46 2.46 0 0 1 0.44 0.09l-0.13 1.63-0.34-0.08a2.6 2.6 0 0 0-0.4 0 1.23 1.23 0 0 0-0.67 0.16 1 1 0 0 0-0.39 0.41 1.75 1.75 0 0 0-0.18 0.56 3.07 3.07 0 0 0 0 0.59v1.25h1.77v1.54h-1.82v6.14h-1.92z"/><path d="m92.28 9.42a4 4 0 0 1 0.33-1.65 3.79 3.79 0 0 1 2.21-2.09 4.72 4.72 0 0 1 1.64-0.29 4.66 4.66 0 0 1 1.63 0.29 4 4 0 0 1 1.33 0.81 3.85 3.85 0 0 1 0.88 1.28 4 4 0 0 1 0.33 1.65 4.15 4.15 0 0 1-0.33 1.67 3.75 3.75 0 0 1-0.88 1.28 4.07 4.07 0 0 1-1.33 0.84 4.26 4.26 0 0 1-1.63 0.31 4.31 4.31 0 0 1-1.64-0.31 3.92 3.92 0 0 1-1.32-0.84 3.77 3.77 0 0 1-0.89-1.28 4.15 4.15 0 0 1-0.33-1.67zm2 0a3.13 3.13 0 0 0 0.14 0.9 2.34 2.34 0 0 0 0.41 0.8 2.22 2.22 0 0 0 0.68 0.57 2.27 2.27 0 0 0 2 0 2.27 2.27 0 0 0 0.69-0.57 2.5 2.5 0 0 0 0.4-0.8 3.13 3.13 0 0 0 0.14-0.9 3.06 3.06 0 0 0-0.14-0.89 2.56 2.56 0 0 0-0.4-0.79 2.27 2.27 0 0 0-0.69-0.57 2.46 2.46 0 0 0-2 0 2.22 2.22 0 0 0-0.68 0.57 2.38 2.38 0 0 0-0.41 0.79 3.06 3.06 0 0 0-0.19 0.89z"/><path d="m102.17 5.61h1.83v1.28a2.71 2.71 0 0 1 0.9-1.08 2.2 2.2 0 0 1 1.34-0.42h0.24a0.72 0.72 0 0 1 0.22 0v1.81l-0.32-0.07h-0.27a2 2 0 0 0-1.05 0.24 1.94 1.94 0 0 0-0.63 0.57 2.07 2.07 0 0 0-0.3 0.69 2.32 2.32 0 0 0-0.08 0.56v4.11h-1.92z"/><path d="m46.37 29.69a2.8 2.8 0 0 0 0.84 1.51 2.3 2.3 0 0 0 1.61 0.6 2.5 2.5 0 0 0 1.26-0.28 2.24 2.24 0 0 0 0.78-0.78 3.61 3.61 0 0 0 0.41-1.16 7.77 7.77 0 0 0 0.12-1.4v-11.69h2.38v11.79a9.69 9.69 0 0 1-0.2 1.87 5 5 0 0 1-0.72 1.85 4.1 4.1 0 0 1-1.47 1.39 4.79 4.79 0 0 1-2.44 0.56 4.86 4.86 0 0 1-3.17-1 4.7 4.7 0 0 1-1.6-2.59z"/><path d="m64.11 26.12a2.28 2.28 0 0 0-0.77-1.89 3.16 3.16 0 0 0-2-0.61 4.44 4.44 0 0 0-1.81 0.37 4.76 4.76 0 0 0-1.43 1l-1.2-1.44a6.2 6.2 0 0 1 2-1.25 7.46 7.46 0 0 1 2.61-0.45 5.93 5.93 0 0 1 2.12 0.34 4.2 4.2 0 0 1 1.48 0.95 3.87 3.87 0 0 1 0.89 1.37 5.27 5.27 0 0 1 0.29 1.75v5 1.21a5.32 5.32 0 0 0 0.13 1h-2a6.91 6.91 0 0 1-0.19-1.63h-0.08a4.36 4.36 0 0 1-1.57 1.42 4.78 4.78 0 0 1-2.24 0.5 5.93 5.93 0 0 1-1.41-0.18 4 4 0 0 1-1.35-0.58 3.22 3.22 0 0 1-1-1.08 3.13 3.13 0 0 1-0.4-1.65 2.87 2.87 0 0 1 0.7-2.05 4.39 4.39 0 0 1 1.82-1.16 10.48 10.48 0 0 1 2.54-0.51c1-0.08 1.9-0.12 2.86-0.12zm-0.55 1.94c-0.56 0-1.14 0-1.74 0.07a8.34 8.34 0 0 0-1.63 0.29 3 3 0 0 0-1.22 0.65 1.47 1.47 0 0 0-0.48 1.15 1.54 1.54 0 0 0 0.21 0.84 1.58 1.58 0 0 0 0.54 0.55 1.93 1.93 0 0 0 0.74 0.3 3.86 3.86 0 0 0 0.84 0.09 3.12 3.12 0 0 0 2.44-0.95 3.43 3.43 0 0 0 0.85-2.39v-0.6z"/><path d="m71.69 39.24h-2.25v-17.13h2.21v1.77h0.07a4.26 4.26 0 0 1 1.61-1.5 5.08 5.08 0 0 1 2.48-0.58 5.73 5.73 0 0 1 2.31 0.45 5.49 5.49 0 0 1 1.8 1.27 5.79 5.79 0 0 1 1.16 1.91 6.91 6.91 0 0 1 0 4.69 5.78 5.78 0 0 1-1.15 1.88 5.21 5.21 0 0 1-1.8 1.29 5.79 5.79 0 0 1-2.37 0.47 5.13 5.13 0 0 1-2.29-0.53 4.11 4.11 0 0 1-1.7-1.49h-0.08zm7.49-11.47a4.9 4.9 0 0 0-0.24-1.53 3.84 3.84 0 0 0-0.72-1.32 3.4 3.4 0 0 0-1.22-0.92 3.84 3.84 0 0 0-1.64-0.33 3.56 3.56 0 0 0-2.78 1.25 4 4 0 0 0-0.78 1.32 4.27 4.27 0 0 0-0.28 1.56 4.35 4.35 0 0 0 0.28 1.56 3.89 3.89 0 0 0 0.78 1.3 3.62 3.62 0 0 0 1.21 0.9 3.51 3.51 0 0 0 1.57 0.34 3.7 3.7 0 0 0 1.64-0.35 3.52 3.52 0 0 0 1.19-0.92 4 4 0 0 0 0.72-1.32 5 5 0 0 0 0.27-1.54z"/><path d="m91.13 26.12a2.28 2.28 0 0 0-0.76-1.89 3.2 3.2 0 0 0-2-0.61 4.49 4.49 0 0 0-1.82 0.37 4.71 4.71 0 0 0-1.42 1l-1.2-1.44a6.1 6.1 0 0 1 2-1.25 7.4 7.4 0 0 1 2.6-0.45 6 6 0 0 1 2.13 0.34 4.06 4.06 0 0 1 1.47 0.95 3.89 3.89 0 0 1 0.87 1.37 5.26 5.26 0 0 1 0.28 1.75v5 1.21a6.23 6.23 0 0 0 0.13 1h-2a6.91 6.91 0 0 1-0.19-1.63h-0.07a4.44 4.44 0 0 1-1.57 1.42 4.82 4.82 0 0 1-2.25 0.5 5.85 5.85 0 0 1-1.4-0.18 3.9 3.9 0 0 1-1.32-0.58 3.15 3.15 0 0 1-1.4-2.73 2.91 2.91 0 0 1 0.7-2.05 4.39 4.39 0 0 1 1.82-1.16 10.57 10.57 0 0 1 2.55-0.51q1.41-0.12 2.85-0.12zm-0.55 1.94c-0.56 0-1.14 0-1.74 0.07a8.47 8.47 0 0 0-1.63 0.29 3 3 0 0 0-1.21 0.65 1.47 1.47 0 0 0-0.48 1.15 1.63 1.63 0 0 0 0.2 0.84 1.77 1.77 0 0 0 0.54 0.55 2 2 0 0 0 0.75 0.3 3.86 3.86 0 0 0 0.84 0.09 3.11 3.11 0 0 0 2.43-0.95 3.43 3.43 0 0 0 0.85-2.39v-0.6z"/><path d="m98.5 22.11c0 0.29 0.06 0.61 0.07 1s0 0.66 0 0.9h0.07a3.17 3.17 0 0 1 0.59-0.85 4.12 4.12 0 0 1 0.85-0.7 4.43 4.43 0 0 1 1.06-0.47 4.29 4.29 0 0 1 1.2-0.16 4.4 4.4 0 0 1 1.89 0.37 3.89 3.89 0 0 1 1.32 1 4.15 4.15 0 0 1 0.78 1.47 6.17 6.17 0 0 1 0.25 1.8v7h-2.25v-6.3a8 8 0 0 0-0.11-1.32 3 3 0 0 0-0.4-1.1 2.09 2.09 0 0 0-0.79-0.77 2.59 2.59 0 0 0-1.29-0.29 2.74 2.74 0 0 0-2.2 1 4.11 4.11 0 0 0-0.85 2.73v6h-2.23v-8.86-1.18c0-0.48 0-0.9-0.07-1.27z"/><path class="cls-2" d="m34.33 10.91a17.86 17.86 0 0 0-29.1-5.68 18.24 18.24 0 0 0-3.83 5.68 18 18 0 0 0 0 13.91 18.12 18.12 0 0 0 3.83 5.68 17.85 17.85 0 0 0 12.64 5.24 17.88 17.88 0 0 0 17.87-17.87 17.73 17.73 0 0 0-1.41-6.96z"/><path class="cls-3" d="m34.33 10.91a17.86 17.86 0 0 0-29.1-5.68 18.24 18.24 0 0 0-3.83 5.68 18 18 0 0 0 0 13.91 18.12 18.12 0 0 0 3.83 5.68 17.85 17.85 0 0 0 12.64 5.24 17.88 17.88 0 0 0 17.87-17.87 17.73 17.73 0 0 0-1.41-6.96zm-20.33-2.11h-1.26a1.92 1.92 0 0 0-1.52 0.58 4.24 4.24 0 0 0-0.51 2.54v12.08a4.22 4.22 0 0 0 0.51 2.54 1.88 1.88 0 0 0 1.52 0.58h1.26v1.45h-2.28a3.28 3.28 0 0 1-2.53-1c-0.6-0.63-0.9-1.84-0.9-3.61v-1.44a4.43 4.43 0 0 0-0.73-2.66 2.43 2.43 0 0 0-2.12-1v-1.65a2.43 2.43 0 0 0 2.12-1 4.43 4.43 0 0 0 0.73-2.66v-1.63c0-1.74 0.3-2.94 0.9-3.59a3.25 3.25 0 0 1 2.53-1h2.28zm13.89 15.2c0 1.77-0.3 3-0.9 3.61a3.3 3.3 0 0 1-2.54 1h-2.26v-1.48h1.25a1.91 1.91 0 0 0 1.56-0.58 4.22 4.22 0 0 0 0.47-2.55v-16.59h2.42z"/></g></g></svg>
