<?xml version="1.0" encoding="UTF-8" standalone="no"?>
<svg
   xmlns:dc="http://purl.org/dc/elements/1.1/"
   xmlns:cc="http://creativecommons.org/ns#"
   xmlns:rdf="http://www.w3.org/1999/02/22-rdf-syntax-ns#"
   xmlns:svg="http://www.w3.org/2000/svg"
   xmlns="http://www.w3.org/2000/svg"
   viewBox="0 0 941.87335 455.54932"
   height="455.54932"
   width="941.87335"
   xml:space="preserve"
   id="svg2"
   version="1.1"><metadata
     id="metadata8"><rdf:RDF><cc:Work
         rdf:about=""><dc:format>image/svg+xml</dc:format><dc:type
           rdf:resource="http://purl.org/dc/dcmitype/StillImage" /></cc:Work></rdf:RDF></metadata><defs
     id="defs6"><clipPath
       id="clipPath18"
       clipPathUnits="userSpaceOnUse"><path
         id="path16"
         d="M 0,341.662 H 706.405 V 0 H 0 Z" /></clipPath></defs><g
     transform="matrix(1.3333333,0,0,-1.3333333,0,455.54933)"
     id="g10"><g
       id="g12"><g
         clip-path="url(#clipPath18)"
         id="g14"><g
           transform="translate(188.8403,277.2607)"
           id="g20"><path
             id="path22"
             style="fill:#4c4948;fill-opacity:1;fill-rule:nonzero;stroke:none"
             d="M 0,0 C -9.927,9.928 -26.009,9.943 -35.959,0.052 V -75.594 L 75.795,-75.795 Z" /></g><g
           transform="translate(140.6147,265.0527)"
           id="g24"><path
             id="path26"
             style="fill:#12b3c7;fill-opacity:1;fill-rule:nonzero;stroke:none"
             d="m 0,0 -76.212,-76.214 c -9.946,-9.945 -9.946,-26.07 0,-36.015 L 0,-188.442 Z" /></g><g
           transform="translate(152.8813,64.3496)"
           id="g28"><path
             id="path30"
             style="fill:#4c4948;fill-opacity:1;fill-rule:nonzero;stroke:none"
             d="m 0,0 c 9.95,-9.891 26.032,-9.876 35.959,0.051 l 40.823,40.824 v 83.771 L 0,125.052 Z" /></g><g
           transform="translate(241.875,117.4346)"
           id="g32"><path
             id="path34"
             style="fill:#4c4948;fill-opacity:1;fill-rule:nonzero;stroke:none"
             d="m 0,0 35.388,35.389 c 9.945,9.945 9.945,26.07 0,36.015 L 35.23,71.562 H 0 Z" /></g><g
           transform="translate(492.4961,253.2422)"
           id="g36"><path
             id="path38"
             style="fill:#4c4948;fill-opacity:1;fill-rule:nonzero;stroke:none"
             d="m 0,0 h 17.269 c 1.893,0 3.429,-1.536 3.429,-3.431 V -161.12 c 0,-1.884 -1.527,-3.41 -3.41,-3.41 H 0 c -1.896,0 -3.431,1.535 -3.431,3.43 V -3.431 C -3.431,-1.536 -1.896,0 0,0" /></g><g
           transform="translate(385.876,231.1348)"
           id="g40"><path
             id="path42"
             style="fill:#4c4948;fill-opacity:1;fill-rule:nonzero;stroke:none"
             d="m 0,0 h -40.271 c -1.882,0 -3.408,1.526 -3.408,3.408 v 15.291 c 0,1.882 1.526,3.408 3.408,3.408 H 64.426 c 1.883,0 3.408,-1.526 3.408,-3.408 V 3.409 C 67.834,1.526 66.309,0 64.426,0 H 24.128 v -139.015 c 0,-1.882 -1.524,-3.407 -3.408,-3.407 H 3.408 c -1.883,0 -3.408,1.525 -3.408,3.407 z" /></g><g
           transform="translate(649.4619,137.7471)"
           id="g44"><path
             id="path46"
             style="fill:#4c4948;fill-opacity:1;fill-rule:nonzero;stroke:none"
             d="m 0,0 c 0,-13.816 -5.158,-25.635 -15.469,-35.455 -10.312,-9.823 -22.721,-14.733 -37.225,-14.733 -16.318,0 -30.315,5.557 -41.986,16.675 -2.039,1.944 -2.097,3.829 -0.169,5.666 l 12.07,11.494 c 0.904,0.864 1.869,1.296 2.888,1.296 1.131,0 2.151,-0.432 3.06,-1.296 6.685,-6.369 14.73,-9.551 24.137,-9.551 7.479,0 13.88,2.535 19.208,7.61 5.326,5.071 7.99,11.171 7.99,18.294 0,7.554 -2.61,13.276 -7.82,17.162 -3.514,2.696 -9.803,5.342 -18.869,7.933 -13.597,3.885 -23.741,8.524 -30.426,13.923 -10.086,8.094 -15.127,19.104 -15.127,33.027 0,12.735 4.73,23.609 14.193,32.623 9.461,9.011 20.878,13.519 34.25,13.519 16.319,0 30.314,-5.56 41.986,-16.676 2.039,-1.943 2.094,-3.832 0.17,-5.667 l -12.07,-11.495 c -0.908,-0.865 -1.928,-1.295 -3.059,-1.295 -1.019,0 -1.984,0.43 -2.889,1.295 -6.689,6.368 -14.734,9.552 -24.138,9.552 -6.347,0 -11.757,-2.132 -16.232,-6.394 -4.479,-4.266 -6.714,-9.418 -6.714,-15.462 0,-7.772 3.286,-13.6 9.858,-17.484 3.171,-1.943 10.709,-4.59 22.608,-7.934 C -13.259,39.071 0,23.529 0,0" /></g></g></g></g></svg>